PathFileType	4	(X/Y/Z)	Patient4_TMGait_0pt5_01_right_35.trc.trc
DataRate	CameraRate	NumFrames	NumMarkers	Units	OrigDataRate	OrigDataStartFrame	OrigNumFrames
72.538860103627	72.538860103627	4	33	mm	72.538860103627	124	       141
Frame#	Time	L.ASIS			Sacral			L.Shoulder			Chest			R.Shoulder			Neck			R.ASIS			R.Thigh.Superior			R.Thigh.Lateral			R.Thigh.Inferior			R.Patella			L.Thigh.Superior			L.Thigh.Lateral			L.Thigh.Inferior			L.Patella			L.Shank.Superior			L.Shank.Lateral			L.Shank.Inferior			R.Shank.Superior			R.Shank.Lateral			R.Shank.Inferior			R.Heel			R.Midfoot.Superior			R.Midfoot.Lateral			R.Toe			L.Heel			L.Midfoot.Lateral			L.Midfoot.Superior			L.Toe			L.Elbow			L.Wrist			R.Elbow			R.Wrist			
		X1	Y1	Z1	X2	Y2	Z2	X3	Y3	Z3	X4	Y4	Z4	X5	Y5	Z5	X6	Y6	Z6	X7	Y7	Z7	X8	Y8	Z8	X9	Y9	Z9	X10	Y10	Z10	X11	Y11	Z11	X12	Y12	Z12	X13	Y13	Z13	X14	Y14	Z14	X15	Y15	Z15	X16	Y16	Z16	X17	Y17	Z17	X18	Y18	Z18	X19	Y19	Z19	X20	Y20	Z20	X21	Y21	Z21	X22	Y22	Z22	X23	Y23	Z23	X24	Y24	Z24	X25	Y25	Z25	X26	Y26	Z26	X27	Y27	Z27	X28	Y28	Z28	X29	Y29	Z29	X30	Y30	Z30	X31	Y31	Z31	X32	Y32	Z32	X33	Y33	Z33	

124	47.625642857143	802.544444981992	953.170880452638	308.786692719344	578.686514564293	996.729020133002	449.961110326433	765.867141707097	1423.376299913562	275.349355663179	850.394692728468	1356.857404769380	448.083689028717	748.698032039637	1436.076585040156	611.839893916314	754.040760803226	1487.749810377069	423.484784167643	796.294810426110	934.759711024662	584.673747617540	864.703910496618	755.561552258189	563.232404946227	807.106088468276	634.081613384405	628.246336591791	899.380553381950	593.970996345360	554.521939294637	926.467459564287	511.276320572305	569.074995416333	797.577017549195	725.937665672155	336.788586566114	678.458507928574	635.119999419399	272.506069509573	733.080524826834	540.622454707322	338.510008922053	714.781945814737	474.067934787150	348.977992427283	681.977068170409	409.010229717520	340.289845168138	579.833095687598	305.781474012229	289.400554734986	615.773989566767	190.805811831274	363.885969305347	912.029318717034	422.657588223297	576.083656346123	856.102540996567	307.566112122820	632.808982354284	928.597904386139	223.426681114325	582.954560116215	836.184198185242	39.877653233264	549.505344449817	996.165386033081	113.796925695485	592.371188542280	918.593493372227	38.518391071422	625.540247041279	1120.665270530294	77.150170391545	622.547222731055	472.454189272619	40.724789124917	406.442234836686	547.557479357204	35.151683853843	327.518352775688	631.729270216042	95.588532692674	353.666320520256	759.635773127979	39.491676254761	328.744827983938	804.878722844231	1098.603898776582	108.198508833300	1048.473934766739	1007.286495657269	109.991781730149	595.264397095463	1128.345158433340	715.019365989092	567.136419260863	868.720981161872	731.112666191819	
125	47.639428571429	803.824711473043	952.167158467430	310.667580763410	580.220228770937	995.176056102202	452.429335598644	765.537991276421	1422.388858364974	278.047833819329	850.736887802683	1356.057324873568	450.535523208703	748.889450742498	1434.677501008156	614.525906086219	753.833956700431	1486.619391443847	426.336916113828	798.538597353680	933.218298046030	586.515542734355	867.511714010370	754.103301969072	564.494143586634	808.655074827058	632.461971450920	628.447870044776	901.397134382084	592.833795179446	555.198956823195	927.357336549884	509.496682105779	568.972763057295	798.035428446403	724.541012420072	338.005693433567	678.212828396218	634.346223054850	273.956974062158	732.317016490585	539.358477954846	339.821155106002	713.603689849684	472.387417650129	350.227985660109	679.752756819750	407.699365489602	341.372283500244	576.014171987247	306.037289072733	290.176229264364	610.285656391719	190.327597462423	364.240891733284	912.315552621915	420.312574920207	575.882449018782	855.114179719917	305.798602508389	632.283872305309	926.233268820391	220.987806085615	582.005959646153	830.581543933933	40.179608526888	548.572716458716	992.239998113507	110.730727839985	590.652058939137	912.940476209690	37.761531389246	624.634815322461	1115.916885845298	71.326410661624	620.924060868411	465.428458294252	41.171792914277	406.267303550532	540.640725051850	35.247325872869	327.483376715496	624.921699355371	95.603737266728	353.652642935797	752.774527589295	39.307265373847	328.713939584727	803.363898857422	1096.517915485405	111.869046791683	1045.603565110404	1000.987006885504	113.940608523830	598.685777177139	1125.297595975140	718.481259523471	574.434235694195	865.299750620266	735.333417887121	
126	47.653214285714	805.026068178204	951.315317811875	312.596346376937	581.772383224629	993.824010429213	455.071527592687	765.290521479631	1421.638842704484	280.945785648420	851.212787887597	1355.397904302875	453.125579007897	749.283173659767	1433.380794706085	617.391584790387	753.789558709921	1485.688879120488	429.418678714656	800.905015703006	931.945751939458	588.401692093682	870.578045736529	753.087054306950	565.561168163866	810.812660348569	631.309460591034	628.682484486967	903.839697281177	592.141393346390	555.695151935350	928.641460259711	507.936413042271	568.778312474253	798.843998644728	723.330389476825	339.239007213412	678.444932379100	633.522295038398	275.619830663898	732.374486951187	538.093575171653	341.212896065392	713.375661063685	470.534396948926	351.506882737123	678.225139913513	406.252690076890	342.551643881354	572.639289524218	306.430594563786	291.126554199649	605.039660231052	189.883562470424	364.640332304922	912.762591634896	418.192292256190	575.670684967073	854.132290468841	304.451486740208	632.055715608412	923.388323646013	218.715801702843	581.152851050392	823.898893332690	40.599383678838	547.927051155771	987.286142442859	107.862673735574	589.199452958541	906.256274130459	37.142150694229	623.996120267973	1110.154760340389	65.789283815465	619.478191574204	458.417836338448	41.905160799594	406.113987834587	533.733794541801	35.455538314781	327.470928559667	618.231918196614	95.642491906382	353.610336106540	745.934909131803	39.098101624258	328.671944541205	801.364663012530	1094.515930188464	115.841468465924	1041.804054834858	993.820692219930	117.886123353897	602.794452494578	1122.098826822382	722.162788139437	583.087358576298	861.685288565419	739.701588338520	
127	47.667000000000	806.140335412169	950.672719207070	314.562762603654	583.336286355681	992.716051891566	457.871858980754	765.129595993898	1421.184207161059	284.016895863502	851.811738267565	1354.923437435380	455.828429544588	749.882144489645	1432.243321590546	620.405674045256	753.916361877502	1485.010520026571	432.696738889332	803.365527127475	931.020021784359	590.329717238012	873.789147348315	752.498520916098	566.427657508297	813.480563577419	630.631703319232	628.997375564793	906.527816959706	591.830576771071	556.001417914501	930.163576869867	506.614543143376	568.503041607245	800.021307580821	722.371783156274	340.523369600446	679.227421904395	632.670306101504	277.490000647881	733.372583492038	536.865858542441	342.665157176836	714.237280297635	468.530369215716	352.747191697665	677.487131094638	404.706809863284	343.785870996731	569.793880970433	307.034667230964	292.236170873717	600.111459093727	189.544391944759	365.057526870987	913.290810785511	416.359497315247	575.457954062785	853.219066826862	303.523612635066	632.138103244443	920.240624166664	216.706602383000	580.417391590380	816.623021472248	41.039883324565	547.562205279058	981.637644408421	105.364371875616	588.078482198060	899.010924497131	36.672714963257	623.625559644732	1103.758926363732	60.952496595717	618.289583791234	451.467119954971	43.072303469829	405.985781167918	526.858594684148	35.854275539069	327.482926368756	611.723629849077	95.723994825038	353.517477047300	739.113832348861	38.867179229205	328.623213784345	798.894903627110	1092.672986262752	120.116442679240	1037.002392419516	985.860713293675	121.823284046202	607.585848245240	1118.849426471583	726.035460470421	593.064063641102	858.018817005761	744.165129970393	
